
<svg fill="currentColor" height="800px" width="800px" version="1.1" id="Capa_1" xmlns="http://www.w3.org/2000/svg" xmlns:xlink="http://www.w3.org/1999/xlink"
	viewBox="0 0 481.587 481.587" xml:space="preserve">
	<g>
		<path d="M211.564,104.888h74.104c1.701,0,3.276-0.886,4.155-2.335c0.878-1.45,0.94-3.261,0.156-4.766L252.92,26.748
		c-0.839-1.606-2.493-2.61-4.304-2.61c-1.811,0-3.465,1.004-4.304,2.61l-37.059,71.039c-0.783,1.505-0.721,3.315,0.156,4.766
		C208.288,104.002,209.863,104.888,211.564,104.888z"/>
		<path d="M472.384,259.468H442.63c-5.079,0-9.202,4.123-9.202,9.202v21.563h-24.08V268.67c0-5.079-4.123-9.202-9.202-9.202h-29.755
		c-5.079,0-9.202,4.123-9.202,9.202v21.563h-24.08V268.67c0-5.079-4.123-9.202-9.202-9.202h-11.75l12.486,196.962l0.063,1.02
		h152.878c0-69.065,0-120.961,0-188.779C481.587,263.591,477.464,259.468,472.384,259.468z"/>
		<path d="M144.475,268.67v21.563h-24.079V268.67c0-5.079-4.122-9.202-9.202-9.202H81.44c-5.08,0-9.202,4.123-9.202,9.202v21.563
		h-24.08V268.67c0-5.079-4.123-9.202-9.202-9.202H9.202c-5.079,0-9.202,4.123-9.202,9.202c0,67.85,0,119.73,0,188.779h168.524
		l0.063-1.02l12.487-196.962h-27.395C148.599,259.468,144.475,263.591,144.475,268.67z"/>
		<path d="M312.592,182.88l-0.055-49.781c-0.008-3.833-3.112-6.937-6.945-6.937h-16.672c-3.801,0-6.89,3.049-6.944,6.842
		l-0.235,17.34H263.65v-17.245c0-3.833-3.104-6.937-6.945-6.937h-16.569c-3.841,0-6.945,3.104-6.945,6.937v17.245h-18.123v-17.245
		c0-3.833-3.104-6.937-6.944-6.937h-16.57c-3.842,0-6.945,3.104-6.945,6.937v49.781l16.053,21.399l-16.053,253.17h128.015
		l-16.052-253.17L312.592,182.88z M265.68,407.684c0,2.366-1.913,4.279-4.28,4.279h-25.553c-2.368,0-4.28-1.913-4.28-4.279v-39.6
		c0-2.367,1.912-4.279,4.28-4.279H261.4c2.367,0,4.28,1.912,4.28,4.279V407.684z M265.68,327.419c0,2.366-1.913,4.279-4.28,4.279
		h-25.553c-2.368,0-4.28-1.913-4.28-4.279v-39.6c0-2.367,1.912-4.279,4.28-4.279H261.4c2.367,0,4.28,1.912,4.28,4.279V327.419z
		 M265.68,247.154c0,2.367-1.913,4.28-4.28,4.28h-25.553c-2.368,0-4.28-1.913-4.28-4.28v-39.6c0-2.367,1.912-4.279,4.28-4.279H261.4
		c2.367,0,4.28,1.912,4.28,4.279V247.154z"/>
	</g>
</svg>
